<svg width="33" height="35" viewBox="0 0 33 35" fill="none" xmlns="http://www.w3.org/2000/svg">
<g filter="url(#filter0_d_3_21)">
<path d="M27.4955 0.830399C27.9275 0.831199 28.2633 0.951798 28.5029 1.1923C28.7424 1.4567 28.8617 1.8169 28.8608 2.2729L28.818 25.2769C28.8171 25.7569 28.6964 26.1167 28.4559 26.3562C28.2155 26.5958 27.8793 26.7151 27.4473 26.7143C27.0633 26.7136 26.7634 26.6291 26.5478 26.4607C26.308 26.3162 26.0925 26.0638 25.9012 25.7034L16.0718 7.1091L17.1518 7.1111L7.28919 25.6688C7.09652 26.0284 6.89205 26.28 6.67578 26.4236C6.45947 26.5912 6.14731 26.6746 5.73932 26.6739C5.33132 26.6731 5.00754 26.5525 4.76799 26.3121C4.52844 26.0716 4.40911 25.7114 4.41 25.2314L4.45288 2.2274C4.45373 1.7714 4.5744 1.4117 4.81489 1.1481C5.03134 0.908498 5.36756 0.789098 5.82356 0.789998C6.25556 0.790798 6.59134 0.911399 6.83089 1.1519C7.07039 1.4163 7.18972 1.7765 7.18887 2.2325L7.15116 22.4645L6.28717 22.4629L15.3186 5.5957C15.4872 5.284 15.6676 5.0563 15.8599 4.9127C16.0281 4.793 16.2802 4.7335 16.6162 4.7341C16.9522 4.7347 17.2161 4.8072 17.4078 4.9516C17.5996 5.0959 17.7672 5.3123 17.9106 5.6005L26.9871 22.5375L26.1231 22.5359L26.1608 2.2679C26.1617 1.8119 26.2824 1.4521 26.5229 1.1886C26.7393 0.948998 27.0635 0.829599 27.4955 0.830399Z" fill="#914702"/>
<path d="M5.81356 26.672C5.38156 26.672 5.04556 26.552 4.80556 26.312C4.56556 26.048 4.44556 25.688 4.44556 25.232V2.22799C4.44556 1.74799 4.56556 1.38799 4.80556 1.14799C5.04556 0.907994 5.38156 0.787994 5.81356 0.787994C6.19756 0.787994 6.49756 0.871994 6.71356 1.03999C6.95356 1.18399 7.16956 1.43599 7.36156 1.79599L17.2256 20.372H16.1456L25.9736 1.79599C26.1656 1.43599 26.3696 1.18399 26.5856 1.03999C26.8016 0.871994 27.1136 0.787994 27.5216 0.787994C27.9296 0.787994 28.2536 0.907994 28.4936 1.14799C28.7336 1.38799 28.8536 1.74799 28.8536 2.22799V25.232C28.8536 25.688 28.7336 26.048 28.4936 26.312C28.2776 26.552 27.9416 26.672 27.4856 26.672C27.0536 26.672 26.7176 26.552 26.4776 26.312C26.2376 26.048 26.1176 25.688 26.1176 25.232V4.99999H26.9816L17.9816 21.884C17.8136 22.196 17.6336 22.424 17.4416 22.568C17.2736 22.688 17.0216 22.748 16.6856 22.748C16.3496 22.748 16.0856 22.676 15.8936 22.532C15.7016 22.388 15.5336 22.172 15.3896 21.884L6.28156 4.96399H7.14556V25.232C7.14556 25.688 7.02556 26.048 6.78556 26.312C6.56956 26.552 6.24556 26.672 5.81356 26.672Z" fill="#FF8008"/>
</g>
<defs>
<filter id="filter0_d_3_21" x="0.409996" y="0.787994" width="32.4508" height="33.9263" filterUnits="userSpaceOnUse" color-interpolation-filters="sRGB">
<feFlood flood-opacity="0" result="BackgroundImageFix"/>
<feColorMatrix in="SourceAlpha" type="matrix" values="0 0 0 0 0 0 0 0 0 0 0 0 0 0 0 0 0 0 127 0" result="hardAlpha"/>
<feOffset dy="4"/>
<feGaussianBlur stdDeviation="2"/>
<feComposite in2="hardAlpha" operator="out"/>
<feColorMatrix type="matrix" values="0 0 0 0 0 0 0 0 0 0 0 0 0 0 0 0 0 0 0.25 0"/>
<feBlend mode="normal" in2="BackgroundImageFix" result="effect1_dropShadow_3_21"/>
<feBlend mode="normal" in="SourceGraphic" in2="effect1_dropShadow_3_21" result="shape"/>
</filter>
</defs>
</svg>
